<?xml version="1.0" standalone="no"?>
<!DOCTYPE svg PUBLIC "-//W3C//DTD SVG 20010904//EN"
 "http://www.w3.org/TR/2001/REC-SVG-20010904/DTD/svg10.dtd">
<svg version="1.0" xmlns="http://www.w3.org/2000/svg"
 width="256.000000pt" height="256.000000pt" viewBox="0 0 256.000000 256.000000"
 preserveAspectRatio="xMidYMid meet">
<metadata>
Created by potrace 1.14, written by Peter Selinger 2001-2017
</metadata>
<g transform="translate(0.000000,256.000000) scale(0.100000,-0.100000)"
fill="#000000" stroke="none">
<path d="M410 2531 c-69 -22 -130 -73 -166 -141 -18 -33 -19 -77 -22 -852 -2
-809 -2 -818 18 -838 24 -24 49 -26 76 -6 18 14 19 37 24 829 l5 815 25 27
c54 58 11 55 885 55 l806 0 -12 -21 c-6 -12 -15 -36 -20 -53 -5 -16 -9 -496
-9 -1066 0 -1013 -1 -1036 -20 -1068 -58 -96 -192 -91 -242 9 -14 27 -18 60
-18 157 0 109 -2 124 -20 142 -20 20 -33 20 -840 20 -818 0 -820 0 -841 -21
-20 -20 -21 -29 -17 -167 3 -119 7 -154 22 -182 25 -49 74 -98 121 -123 l40
-22 875 0 c834 0 877 1 910 19 70 37 120 98 141 170 5 17 9 496 9 1066 0 1013
1 1036 20 1068 30 49 76 74 129 69 91 -10 131 -68 131 -194 l0 -83 -80 0 c-67
0 -83 -3 -100 -20 -11 -11 -20 -29 -20 -40 0 -11 9 -29 20 -40 18 -18 33 -20
140 -20 167 0 163 -5 158 188 -3 127 -6 152 -25 187 -25 47 -74 95 -123 121
-33 18 -80 19 -995 21 -528 1 -971 -2 -985 -6z m1212 -2218 c3 -77 9 -117 21
-141 l18 -32 -710 0 -709 1 -33 22 c-52 34 -69 78 -69 175 l0 82 739 0 739 0
4 -107z"/>
<path d="M900 2120 c-11 -11 -20 -29 -20 -40 0 -11 9 -29 20 -40 19 -19 33
-20 280 -20 247 0 261 1 280 20 24 24 25 48 4 78 -15 22 -18 22 -280 22 -251
0 -265 -1 -284 -20z"/>
<path d="M640 1520 c-11 -11 -20 -29 -20 -40 0 -11 9 -29 20 -40 19 -19 33
-20 540 -20 507 0 521 1 540 20 11 11 20 29 20 40 0 11 -9 29 -20 40 -19 19
-33 20 -540 20 -507 0 -521 -1 -540 -20z"/>
<path d="M654 1232 c-6 -4 -16 -17 -23 -29 -14 -28 3 -69 33 -77 11 -3 184 -6
383 -6 l362 0 20 26 c21 26 19 46 -7 77 -14 16 -45 17 -386 17 -204 0 -376 -4
-382 -8z"/>
<path d="M1640 1220 c-11 -11 -20 -29 -20 -40 0 -11 9 -29 20 -40 11 -11 29
-20 40 -20 11 0 29 9 40 20 11 11 20 29 20 40 0 11 -9 29 -20 40 -11 11 -29
20 -40 20 -11 0 -29 -9 -40 -20z"/>
</g>
</svg>
